<?xml version="1.0" encoding="UTF-8"?>
<svg viewBox="0 0 1125 1125" xmlns="http://www.w3.org/2000/svg">
 <g transform="matrix(1.25,0,0,-1.25,0,1125)">
  <g transform="scale(.24)">
   <path d="m932.25,3067.25c-171.77-.07-268.586-89.12-269-271v-1876c.414-169.746 87.457-258.852 260-259h1883c172.07.148 259.25,84.816 259,259v1876c.25,177.44-86.93,270.93-264,271 0,0-1869.137.52-1869,0"/>
   <path d="m932.25,3067.25c-171.77-.07-268.586-89.12-269-271v-1876c.414-169.746 87.457-258.852 260-259h1883c172.07.148 259.25,84.816 259,259v1876c.25,177.44-86.93,270.93-264,271 0,0-1869.137.52-1869,0z" fill="none" stroke="#fff" stroke-miterlimit="10" stroke-width="14.2"/>
   <path d="m1875.25,1061.25c-449.56.19-813.81,364.44-814,814 .19,449.07 364.44,813.31 814,813 449.07.31 813.31-363.93 813-813 .31-449.56-363.93-813.81-813-814z" fill="none" stroke="#fff" stroke-miterlimit="10" stroke-width="211.31"/>
   <path d="m1450.2 1732.2h198c12.16-57.25 28.62-126.51 119-152l-1 225c-122.87 17.54-300.73 71.83-301 271 0.27 223.75 246.85 293.54 302 294v135h186v-135c124.87-7.75 306.78-112.96 307-313h-196c-4.88 59.41-50.71 117.75-109 122v-206c148.91-15.72 324.35-72.99 324-275 0.35-175.63-175.77-304.01-324-312v-136h-188v138c-107.99 15.88-304.75 120.08-317 344" fill="#fff"/>
   <path d="m1768.2 2177.2v-171c-132.84 2.08-135.41 147.15 0 171"/>
   <path d="m1957.2 1773.2c163.58-4.5 181.81-168.05-1-194"/>
   <path d="m1956.2 1579.2 1 194"/>
  </g>
 </g>
</svg>
